<svg width="800" height="104" xmlns="http://www.w3.org/2000/svg">
 <g>
  <title>Layer 1</title>
  <path fill="#fff" stroke="#000" opacity="NaN" d="m288,349" id="svg_3"/>
  <path fill="#0447b4" opacity="NaN" d="m382.93657,101.25182c179.48372,9.10326 234.95853,-40.44667 321.89869,-42.37856c86.94015,-1.9319 103.25696,38.67113 103.16719,32.81175c-0.17954,-11.71875 1.89568,-75.13322 -2.03446,-75.13322c8.07388,-0.65027 -78.80062,-39.70276 -218.60591,4.42052c-139.80529,44.12329 -121.28985,38.12803 -147.32395,45.19017c-26.0341,7.06215 -29.60805,9.17323 -106.24748,18.64912" id="svg_13"/>
  <path fill="#ffd300" opacity="NaN" d="m-1.23212,104.45586c0,0 0,-74.5 0,-74.50001c0,0.00001 66,-31.99999 175,2.50001c109,34.5 156.5196,49.64705 167.49999,51.99999c10.9804,2.35295 98.36706,34.93329 214.50001,2.50001c116.13295,-32.43329 150.03659,-28.97561 154.60974,-30.19513c12.33861,1.28528 76.2432,-1.30487 94.2432,25.69513c18,27 -7.85294,22 -7.85296,21.99999" id="svg_5"/>
 </g>

</svg>
