<?xml version="1.0" encoding="UTF-8"?> <svg xmlns="http://www.w3.org/2000/svg" width="43" height="36" viewBox="0 0 43 36" fill="none"><path d="M39.9178 26.7169C39.9167 25.989 39.7019 25.2779 39.3006 24.6733C38.8994 24.0686 38.3296 23.5977 37.6634 23.3201C36.9972 23.0424 36.2644 22.9705 35.5577 23.1133C34.851 23.2562 34.2021 23.6074 33.693 24.1226L33.6706 24.149C33.6586 24.1593 33.6473 24.1706 33.6371 24.1828L33.5925 24.2279L33.5403 24.2768C33.5403 24.2994 33.4994 24.3182 33.4808 24.3369C33.4622 24.3557 33.4324 24.3783 33.41 24.4046C33.3877 24.4309 33.41 24.4046 33.41 24.4046L33.3021 24.4986L33.1867 24.6001L33.0601 24.7054L32.9298 24.8144C32.8814 24.852 32.833 24.8859 32.7846 24.9272L32.6357 25.04L32.5612 25.0964L32.3862 25.228C32.3229 25.2694 32.2634 25.3145 32.2038 25.3596C32.1442 25.4047 32.0735 25.4461 32.0102 25.4912L31.8092 25.6266L31.6007 25.7581L31.4145 25.8709L31.1837 26.0138L30.9454 26.1529L30.696 26.292L30.4391 26.4312C30.3498 26.4725 30.2641 26.5139 30.1785 26.5627C30.0929 26.6116 29.9812 26.653 29.8881 26.7056C29.795 26.7583 29.6945 26.7921 29.6014 26.841C29.5084 26.8898 29.4041 26.9274 29.3073 26.9763C29.2058 27.0134 29.1064 27.0561 29.0095 27.1042C28.9042 27.138 28.801 27.1782 28.7005 27.2245C28.5813 27.2658 28.4697 27.3072 28.358 27.3561C28.2317 27.3935 28.1075 27.4374 27.9857 27.4877C27.8703 27.5215 27.7548 27.5628 27.6469 27.6042C27.5389 27.6456 27.4161 27.6719 27.3006 27.717C27.182 27.7434 27.0651 27.7773 26.9507 27.8185C26.8135 27.8486 26.678 27.8863 26.5449 27.9313C26.4037 27.9571 26.2644 27.9922 26.1279 28.0366C25.979 28.0686 25.8323 28.11 25.6886 28.1607C25.5583 28.1832 25.428 28.2095 25.3163 28.2434C25.177 28.2586 25.0389 28.2837 24.903 28.3186C24.749 28.3339 24.596 28.359 24.4451 28.3938C24.2875 28.4066 24.1309 28.4292 23.976 28.4614C23.8248 28.4705 23.6744 28.4893 23.5255 28.5178C23.3768 28.5266 23.2288 28.5454 23.0825 28.5742C22.918 28.5752 22.7538 28.5878 22.5911 28.6118H22.5352C22.3834 28.6122 22.2317 28.6223 22.081 28.6419H21.9582C21.8242 28.6419 21.6901 28.6419 21.5598 28.6645H21.3699C21.2694 28.6645 21.1689 28.6645 21.0721 28.6645C20.9753 28.6645 20.8711 28.6645 20.7706 28.6645H20.5807C20.4504 28.6645 20.3163 28.6419 20.1823 28.6419H20.0595C19.9088 28.6223 19.7571 28.6122 19.6053 28.6118H19.5494C19.3867 28.5878 19.2225 28.5752 19.058 28.5742C18.9151 28.551 18.7708 28.5372 18.6261 28.5329C18.4773 28.5044 18.3268 28.4855 18.1756 28.4765C18.022 28.4445 17.8666 28.4219 17.7103 28.4088C17.558 28.3743 17.4039 28.3492 17.2486 28.3336C17.1128 28.2988 16.9747 28.2736 16.8354 28.2584C16.7088 28.2246 16.5785 28.1983 16.4631 28.1757C16.3321 28.1381 16.1991 28.1079 16.0647 28.0855C15.9249 28.0355 15.7818 27.9953 15.6366 27.9651C15.5034 27.9201 15.368 27.8824 15.2308 27.8524C15.1164 27.8111 14.9995 27.7772 14.8808 27.7508C14.7675 27.7071 14.6519 27.6694 14.5346 27.638C14.4266 27.5967 14.3112 27.5553 14.1958 27.5215C14.0742 27.4706 13.9499 27.4267 13.8235 27.3899C13.7118 27.341 13.6001 27.2997 13.481 27.2583C13.3814 27.2127 13.2795 27.1725 13.1757 27.138C13.0752 27.0891 12.9747 27.0478 12.8741 27.0102C12.7736 26.9726 12.6805 26.9162 12.58 26.8748C12.4795 26.8335 12.3901 26.7808 12.2933 26.7395C12.1966 26.6981 12.1035 26.6417 12.003 26.5966C11.9024 26.5515 11.8317 26.5063 11.7423 26.465L11.5004 26.3184L11.2546 26.1792C11.1765 26.1304 11.0946 26.0853 11.0126 26.0401L10.7967 25.9048L10.6106 25.792L10.4021 25.6604C10.3388 25.6115 10.2718 25.5702 10.201 25.525L10.0112 25.3934L9.82502 25.2619L9.65004 25.1303L9.57558 25.0739L9.42666 24.9611L9.28519 24.8483L9.15116 24.7392L9.02458 24.634L8.90917 24.5325L8.79003 24.4385H8.7677C8.74536 24.4121 8.7193 24.3933 8.69696 24.3708C8.67462 24.3482 8.65601 24.3332 8.63739 24.3106L8.58527 24.2618L8.56293 24.1978L8.52943 24.164C8.51983 24.1562 8.51109 24.1474 8.50337 24.1377C8.16602 23.7935 7.76486 23.5199 7.32278 23.3323C6.88071 23.1447 6.40638 23.0469 5.92688 23.0445C5.44738 23.042 4.9721 23.135 4.52818 23.3181C4.08425 23.5011 3.68038 23.7707 3.33961 24.1114C2.99884 24.452 2.72785 24.8572 2.54212 25.3036C2.35639 25.7501 2.25955 26.2291 2.25713 26.7133C2.25471 27.1976 2.34675 27.6775 2.52802 28.1259C2.70928 28.5742 2.9762 28.9821 3.31355 29.3262L3.33588 29.3487L3.37684 29.3901L3.42896 29.4427L3.49597 29.5104L3.57788 29.5894L3.68584 29.7022C3.77009 29.7917 3.86094 29.8747 3.95762 29.9503L4.07303 30.0556L4.20334 30.1721C4.25173 30.2135 4.30013 30.2586 4.35225 30.2962C4.40438 30.3338 4.46022 30.3902 4.51607 30.4353L4.69104 30.5782C4.75434 30.6308 4.81763 30.6835 4.88464 30.7324C4.95165 30.7812 5.02239 30.8414 5.09313 30.894C5.19077 30.9771 5.29268 31.0549 5.39841 31.1271L5.62923 31.2926C5.71114 31.3527 5.79304 31.4129 5.87495 31.4655C5.95685 31.5181 6.04621 31.5896 6.13556 31.646C6.22491 31.7024 6.31798 31.7738 6.41478 31.8302C6.50787 31.8985 6.60483 31.9613 6.70517 32.0182C6.81486 32.0967 6.92925 32.1683 7.04768 32.2325C7.14969 32.301 7.25533 32.3637 7.36414 32.4205C7.47118 32.4902 7.58178 32.5542 7.69548 32.6122C7.80805 32.6835 7.92494 32.7475 8.04544 32.804C8.16502 32.8776 8.2894 32.9429 8.41774 32.9995C8.53796 33.0731 8.66226 33.1396 8.79003 33.1988C8.91289 33.2665 9.03947 33.3304 9.16233 33.3868C9.29207 33.4573 9.42641 33.5189 9.56441 33.571C9.70003 33.6437 9.84062 33.7065 9.98511 33.759C10.1275 33.8309 10.2742 33.8937 10.4244 33.947C10.5722 34.02 10.7253 34.0816 10.8823 34.1312C11.026 34.1989 11.174 34.2566 11.3254 34.3042C11.4693 34.3669 11.6174 34.4196 11.7684 34.4621C11.9296 34.5284 12.095 34.5837 12.2636 34.6275C12.4311 34.6939 12.6027 34.7492 12.7773 34.7929C12.9506 34.8591 13.1286 34.9119 13.3097 34.9508C13.4726 35.0078 13.6393 35.0531 13.8086 35.0862C13.9755 35.1407 14.1459 35.1834 14.3186 35.214C14.4998 35.2708 14.6854 35.3123 14.8734 35.3381C15.0655 35.3967 15.2623 35.4382 15.4616 35.4622C15.6533 35.514 15.8487 35.5505 16.0461 35.5712C16.232 35.6165 16.4213 35.6467 16.612 35.6614C16.806 35.6982 17.0029 35.7171 17.2002 35.7178C17.4035 35.762 17.6104 35.7872 17.8182 35.793C18.0379 35.8353 18.261 35.8567 18.4846 35.8569C18.6728 35.8899 18.8633 35.9075 19.0543 35.9096H19.1101C19.2779 35.9336 19.447 35.9462 19.6164 35.9472H19.7318C19.8825 35.9667 20.0342 35.9767 20.186 35.9773H20.3796C20.5099 35.9773 20.6402 35.9998 20.7743 35.9998C20.9083 35.9998 20.9753 35.9998 21.0758 35.9998C21.1764 35.9998 21.2732 35.9998 21.3737 35.9998C21.4742 35.9998 21.638 35.9998 21.7683 35.9773H21.9619C22.1138 35.9767 22.2655 35.9667 22.4161 35.9472H22.539C22.7096 35.946 22.88 35.9335 23.049 35.9096H23.1049C23.2946 35.9075 23.4838 35.8899 23.6707 35.8569C23.8944 35.8567 24.1175 35.8353 24.3372 35.793C24.5462 35.7872 24.7544 35.762 24.9589 35.7178C25.1533 35.7077 25.3464 35.68 25.536 35.6351C25.7267 35.6206 25.916 35.5904 26.1018 35.5449C26.2992 35.5241 26.4947 35.4877 26.6864 35.4359C26.8856 35.4119 27.0825 35.3704 27.2746 35.3118C27.4626 35.286 27.6481 35.2445 27.8293 35.1877C28.002 35.1571 28.1725 35.1144 28.3394 35.0599C28.5097 35.0263 28.6776 34.981 28.842 34.9245C29.0219 34.8856 29.1986 34.8328 29.3706 34.7666C29.5453 34.7228 29.7169 34.6676 29.8844 34.6012C30.0531 34.5579 30.2186 34.5027 30.3795 34.4357C30.5306 34.3933 30.6786 34.3405 30.8226 34.2778C30.9749 34.2297 31.1241 34.1719 31.2693 34.1049C31.4249 34.0546 31.5767 33.993 31.7235 33.9207C31.8737 33.8674 32.0205 33.8046 32.1628 33.7327C32.3079 33.6816 32.4486 33.6188 32.5835 33.5447C32.7218 33.4933 32.8562 33.4317 32.9856 33.3604C33.1159 33.304 33.2425 33.2401 33.3579 33.1725C33.4861 33.114 33.6104 33.0475 33.7302 32.9732C33.8585 32.9166 33.9829 32.8513 34.1025 32.7777C34.2234 32.722 34.3403 32.6579 34.4525 32.5859C34.5666 32.5287 34.6773 32.4647 34.7838 32.3942C34.8931 32.3382 34.9988 32.2754 35.1003 32.2062C35.2187 32.1419 35.3331 32.0704 35.4428 31.9919C35.5431 31.935 35.6401 31.8722 35.7332 31.8039C35.83 31.7475 35.923 31.6836 36.0124 31.6197C36.1017 31.5557 36.1874 31.5031 36.273 31.4392C36.3578 31.3859 36.4398 31.3281 36.5187 31.2662L36.7495 31.1008C36.8538 31.0294 36.958 30.9504 37.0585 30.8677L37.2633 30.706C37.3303 30.6572 37.3936 30.6045 37.4569 30.5519L37.6356 30.409L37.7957 30.2699C37.8478 30.2323 37.8962 30.1872 37.9446 30.1458L38.0749 30.0293L38.1903 29.924C38.287 29.8483 38.3779 29.7654 38.4621 29.6759L38.5589 29.5856L38.6408 29.5067L38.7078 29.439L38.7599 29.3863L38.8009 29.345L38.8232 29.3224C39.1672 28.9828 39.4411 28.5776 39.629 28.1304C39.8169 27.6832 39.915 27.2027 39.9178 26.7169Z" fill="#0447b3"></path><path d="M5.40947 10.926C8.39704 10.926 10.8189 8.4801 10.8189 5.46298C10.8189 2.44586 8.39704 0 5.40947 0C2.4219 0 0 2.44586 0 5.46298C0 8.4801 2.4219 10.926 5.40947 10.926Z" fill="#0447b3"></path><path d="M36.7569 10.926C39.7445 10.926 42.1664 8.4801 42.1664 5.46298C42.1664 2.44586 39.7445 0 36.7569 0C33.7693 0 31.3474 2.44586 31.3474 5.46298C31.3474 8.4801 33.7693 10.926 36.7569 10.926Z" fill="#0447b3"></path></svg>
