<?xml version="1.0" encoding="UTF-8"?> <svg xmlns="http://www.w3.org/2000/svg" width="161" height="35" viewBox="0 0 161 35" fill="none"><path d="M13.1702 7.49384L16.3432 0H22.3656L26.3393 22.9013H20.2851L18.2681 9.71966L14.2411 18.1852H13.1702H12.0982L8.07124 9.71966L6.0542 22.9013H0L3.97368 0H9.99614L13.1702 7.49384Z" fill="white"></path><path d="M40.4772 7.32058H46.127V22.9013H40.4772V21.1703C39.2766 22.6488 37.6517 23.3878 35.6025 23.3871C34.5041 23.399 33.4152 23.1872 32.405 22.765C31.4439 22.3581 30.5778 21.7636 29.8596 21.0181C29.1249 20.2537 28.5503 19.3559 28.1682 18.3755C27.7556 17.3189 27.55 16.1958 27.562 15.0648C27.5578 13.9801 27.7595 12.9041 28.1569 11.8914C28.5273 10.9216 29.0833 10.0299 29.7951 9.26391C30.5025 8.51203 31.3578 7.90761 32.3098 7.48686C33.3249 7.04342 34.4264 6.82092 35.538 6.83474C37.5251 6.83474 39.1708 7.51291 40.4752 8.86923L40.4772 7.32058ZM33.3992 15.0648C33.3904 16.0157 33.7636 16.9319 34.4384 17.6162C34.764 17.9438 35.155 18.2023 35.5872 18.3755C36.0449 18.5603 36.5358 18.6533 37.0309 18.649C37.5158 18.6511 37.9962 18.5582 38.4438 18.3755C38.8755 18.202 39.2662 17.9436 39.5916 17.6162C39.9154 17.2888 40.1781 16.9084 40.3677 16.4923C40.5656 16.063 40.6665 15.5969 40.6636 15.126C40.6653 14.6499 40.5645 14.1789 40.3677 13.7436C40.1803 13.3218 39.9175 12.9361 39.5916 12.6046C39.2659 12.2776 38.8753 12.0192 38.4438 11.8453C37.9962 11.6627 37.5158 11.5697 37.0309 11.5719C36.5358 11.5676 36.0449 11.6606 35.5872 11.8453C35.1552 12.0189 34.7642 12.2773 34.4384 12.6046C34.1193 12.927 33.8617 13.3025 33.6777 13.7135C33.4897 14.1401 33.3949 14.6004 33.3992 15.0648Z" fill="white"></path><path d="M60.8893 12.3622C59.9166 11.7144 58.9337 11.3905 57.9405 11.3905C57.4253 11.3864 56.9141 11.4789 56.4344 11.663C55.9766 11.8396 55.559 12.1031 55.2058 12.4383C54.8536 12.7747 54.575 13.1775 54.3867 13.6223C54.1836 14.1088 54.0833 14.6305 54.0918 15.156C54.0851 15.6712 54.1854 16.1824 54.3867 16.6585C54.5745 17.101 54.8485 17.5035 55.1935 17.8436C55.5434 18.1826 55.9619 18.4464 56.4221 18.6179C56.9072 18.8019 57.4234 18.8947 57.9436 18.8914C58.9982 18.8914 59.9811 18.5371 60.8924 17.8285V22.5056C59.5061 23.0926 58.1917 23.3861 56.9494 23.3861C55.8208 23.3914 54.7005 23.1959 53.6433 22.8091C52.6169 22.4402 51.6754 21.8757 50.8735 21.1484C50.0715 20.421 49.425 19.5453 48.9714 18.5718C48.4832 17.5184 48.2385 16.3726 48.2547 15.2161C48.2407 14.053 48.4747 12.8999 48.9417 11.8303C49.3755 10.8367 50.0088 9.9384 50.8041 9.18874C51.6136 8.4344 52.5687 7.84559 53.6136 7.45677C54.7276 7.03706 55.9124 6.82604 57.1061 6.8347C58.4195 6.82283 59.7174 7.11384 60.8944 7.68416L60.8893 12.3622Z" fill="white"></path><path d="M63.4619 7.32054H69.081V9.87091C69.6273 8.99292 70.3839 8.25822 71.2854 7.73024C72.157 7.23472 73.1731 6.98663 74.3335 6.98596H74.8147C75.0178 6.98904 75.2203 7.00949 75.4198 7.04707V12.3011C74.6679 11.9349 73.8382 11.7475 72.9983 11.7541C71.6939 11.7541 70.7161 12.1338 70.0649 12.8931C69.4137 13.6524 69.0875 14.761 69.0861 16.2188V22.9012H63.4619V7.32054Z" fill="white"></path><path d="M77.0756 14.9747C77.068 13.8577 77.3127 12.7528 77.7923 11.7391C78.2631 10.7439 78.9394 9.85474 79.7786 9.12765C80.6672 8.36537 81.6942 7.77311 82.8062 7.38166C84.035 6.94598 85.3338 6.72985 86.6407 6.74356C87.9357 6.73194 89.2227 6.94248 90.4434 7.36563C91.5577 7.75111 92.5879 8.33832 93.4802 9.0966C94.3327 9.82763 95.0156 10.7286 95.4829 11.7391C95.969 12.8042 96.2135 13.9596 96.1996 15.1259C96.214 16.2936 95.965 17.4499 95.4706 18.5127C94.9961 19.5191 94.3143 20.4187 93.4679 21.1553C92.5744 21.9199 91.5345 22.5032 90.4086 22.8712C89.1642 23.2846 87.8575 23.4898 86.5434 23.4782C85.2543 23.4909 83.9727 23.2855 82.755 22.8712C81.6479 22.4952 80.6295 21.9052 79.7602 21.1362C78.9197 20.3835 78.2485 19.4679 77.7892 18.4476C77.301 17.3515 77.0567 16.1663 77.0725 14.9707L77.0756 14.9747ZM83.0018 15.0308C82.9953 15.5265 83.0958 16.018 83.2967 16.4732C83.4836 16.8953 83.7464 17.2811 84.0728 17.6122C84.3983 17.9398 84.7894 18.1983 85.2216 18.3715C86.1263 18.7361 87.1417 18.7361 88.0465 18.3715C88.4783 18.1978 88.8693 17.9394 89.1953 17.6122C89.5213 17.2808 89.7841 16.8951 89.9714 16.4732C90.1702 16.028 90.2706 15.5467 90.2662 15.0608C90.2684 14.5852 90.1679 14.1145 89.9714 13.6795C89.7841 13.2576 89.5213 12.8719 89.1953 12.5405C88.8708 12.2159 88.4824 11.9589 88.0536 11.7852C87.1489 11.4206 86.1335 11.4206 85.2287 11.7852C84.7968 11.9588 84.4058 12.2172 84.0799 12.5445C83.7561 12.8719 83.4934 13.2523 83.3038 13.6684C83.1063 14.0978 83.0057 14.5639 83.009 15.0348" fill="white"></path><path d="M103.886 30.6766H98.2671V7.32055H103.886V9.05151C105.087 7.57431 106.722 6.83538 108.792 6.83471C109.888 6.8261 110.973 7.04852 111.974 7.48683C112.937 7.90999 113.807 8.5137 114.533 9.26388C115.268 10.0288 115.843 10.9264 116.226 11.9064C116.634 12.943 116.839 14.0453 116.831 15.156C116.841 16.2574 116.636 17.3505 116.226 18.3765C115.839 19.3422 115.27 20.2281 114.549 20.988C113.822 21.7529 112.94 22.3613 111.959 22.7744C110.978 23.1874 109.921 23.3961 108.853 23.3871C106.865 23.3871 105.209 22.7193 103.885 21.3836L103.886 30.6766ZM110.964 15.156C110.967 14.6834 110.877 14.2147 110.701 13.7746C110.531 13.3476 110.272 12.9598 109.94 12.6357C109.605 12.3093 109.21 12.0467 108.776 11.8613C108.328 11.6731 107.845 11.5747 107.357 11.5719C106.869 11.5692 106.386 11.6621 105.935 11.8453C105.509 12.0222 105.124 12.2808 104.803 12.6056C104.476 12.9363 104.213 13.3217 104.026 13.7436C103.83 14.1788 103.729 14.6499 103.732 15.1259C103.728 15.5952 103.823 16.0603 104.01 16.4923C104.19 16.9092 104.455 17.2864 104.787 17.6012C105.126 17.9204 105.52 18.1776 105.951 18.3605C106.396 18.5528 106.877 18.6511 107.363 18.649C107.843 18.6521 108.319 18.5593 108.761 18.3765C109.186 18.1995 109.571 17.941 109.893 17.6162C110.217 17.2885 110.479 16.9082 110.669 16.4923C110.865 16.0728 110.965 15.617 110.964 15.156Z" fill="#FFE800"></path><path d="M131.788 7.32058H137.439V22.9013H131.788V21.1703C130.588 22.6488 128.963 23.3878 126.914 23.3871C125.816 23.399 124.727 23.1872 123.716 22.765C122.755 22.3581 121.889 21.7636 121.171 21.0181C120.436 20.2537 119.861 19.356 119.479 18.3755C119.067 17.3188 118.862 16.1957 118.874 15.0648C118.868 13.9805 119.068 12.9045 119.463 11.8914C119.836 10.9211 120.394 10.0293 121.109 9.26391C121.816 8.51203 122.671 7.90761 123.623 7.48686C124.638 7.04342 125.74 6.82092 126.852 6.83474C128.839 6.83474 130.484 7.51291 131.788 8.86923V7.32058ZM124.709 15.0648C124.701 16.0157 125.074 16.9317 125.749 17.6162C126.074 17.9438 126.466 18.2023 126.898 18.3755C127.355 18.5604 127.846 18.6534 128.341 18.649C128.826 18.6513 129.306 18.5583 129.753 18.3755C130.185 18.2018 130.576 17.9434 130.902 17.6162C131.226 17.2885 131.488 16.9082 131.678 16.4923C131.878 16.0633 131.98 15.5972 131.978 15.126C131.98 14.65 131.88 14.179 131.683 13.7436C131.496 13.322 131.233 12.9364 130.907 12.6046C130.581 12.2778 130.19 12.0194 129.758 11.8453C129.311 11.6625 128.831 11.5695 128.346 11.5719C127.851 11.5675 127.36 11.6605 126.903 11.8453C126.471 12.0189 126.08 12.2773 125.754 12.6046C125.435 12.9267 125.177 13.3023 124.993 13.7135C124.805 14.1399 124.709 14.6002 124.714 15.0648" fill="#FFE800"></path><path d="M147.342 20.7756L139.642 7.32053H146.162L150.414 15.3082L154.544 7.32053H161L148.211 30.6766H141.908L147.342 20.7756Z" fill="#FFE800"></path><path d="M130.459 28.9837C130.458 28.5115 130.315 28.05 130.047 27.6575C129.778 27.2651 129.397 26.9593 128.951 26.779C128.505 26.5987 128.014 26.552 127.541 26.6447C127.068 26.7374 126.633 26.9654 126.292 27.2998L126.283 27.3088L126.268 27.3259L126.245 27.3499L126.215 27.3799L126.178 27.416C126.163 27.43 126.148 27.4431 126.134 27.4581L126.082 27.5052C126.063 27.5232 126.043 27.5392 126.024 27.5583C126.006 27.5773 125.979 27.5953 125.959 27.6153C125.938 27.6354 125.908 27.6544 125.886 27.6775L125.877 27.6845C125.84 27.7085 125.81 27.7396 125.774 27.7656C125.738 27.7917 125.7 27.8237 125.662 27.8518C125.624 27.8798 125.582 27.9109 125.542 27.9399C125.502 27.969 125.457 28 125.415 28.0311C125.373 28.0621 125.326 28.0912 125.282 28.1232C125.238 28.1553 125.188 28.1843 125.141 28.2174C125.095 28.2504 125.039 28.2785 124.994 28.3125C124.949 28.3466 124.892 28.3736 124.84 28.4077C124.789 28.4418 124.732 28.4688 124.681 28.5079C124.623 28.5385 124.568 28.5719 124.514 28.6081C124.455 28.6401 124.395 28.6661 124.341 28.7082C124.287 28.7503 124.232 28.7663 124.178 28.7944C124.124 28.8224 124.046 28.8605 123.979 28.8945C123.913 28.9286 123.842 28.9597 123.775 28.9947C123.703 29.0244 123.632 29.0579 123.564 29.0949C123.489 29.1225 123.416 29.1543 123.346 29.19C123.269 29.2171 123.194 29.2478 123.121 29.2822C123.043 29.3103 122.966 29.3383 122.891 29.3734C122.81 29.3978 122.731 29.4269 122.653 29.4605C122.49 29.5179 122.325 29.5724 122.16 29.6238L122.071 29.6508C121.891 29.7056 121.711 29.757 121.529 29.8051C121.434 29.8228 121.341 29.8462 121.249 29.8752C121.152 29.8912 121.056 29.913 120.962 29.9403C120.863 29.9542 120.765 29.974 120.669 29.9994C120.568 30.0112 120.468 30.0293 120.369 30.0535C120.266 30.0625 120.163 30.0782 120.062 30.1006C119.957 30.1076 119.853 30.1213 119.75 30.1417C119.643 30.1464 119.537 30.1577 119.431 30.1757C119.364 30.1757 119.296 30.1868 119.227 30.1958C119.217 30.1958 119.209 30.1958 119.201 30.1958C119.098 30.1996 118.995 30.21 118.894 30.2268C118.87 30.2268 118.85 30.2198 118.826 30.2198C118.734 30.2236 118.641 30.233 118.55 30.2479C118.513 30.2479 118.478 30.2368 118.44 30.2368C118.358 30.2368 118.28 30.2529 118.201 30.2599C118.148 30.2599 118.098 30.2449 118.046 30.2449C117.977 30.2449 117.913 30.2599 117.841 30.2649C117.77 30.2699 117.709 30.2449 117.636 30.2449C117.583 30.2449 117.534 30.2569 117.482 30.2599C117.402 30.2529 117.324 30.2368 117.242 30.2368C117.204 30.2368 117.17 30.2459 117.133 30.2479C117.041 30.2329 116.949 30.2235 116.856 30.2198C116.834 30.2198 116.812 30.2258 116.79 30.2268C116.688 30.2101 116.585 30.1997 116.483 30.1958C116.473 30.1958 116.465 30.1958 116.457 30.1958C116.389 30.1868 116.323 30.1797 116.252 30.1757C116.147 30.1577 116.041 30.1463 115.934 30.1417C115.832 30.1215 115.73 30.1078 115.627 30.1006C115.525 30.0782 115.423 30.0625 115.319 30.0535C115.221 30.0293 115.121 30.0112 115.02 29.9994C114.924 29.9742 114.826 29.9544 114.728 29.9403C114.633 29.913 114.537 29.8912 114.44 29.8752C114.348 29.8462 114.255 29.8228 114.16 29.8051C114.07 29.775 113.979 29.75 113.886 29.73C113.798 29.6985 113.709 29.672 113.618 29.6508C113.589 29.6408 113.559 29.6328 113.529 29.6238C113.447 29.5929 113.363 29.5661 113.279 29.5437C113.2 29.5082 113.119 29.4771 113.036 29.4505C112.959 29.4169 112.88 29.3878 112.8 29.3633C112.724 29.3283 112.647 29.3002 112.568 29.2722C112.495 29.2378 112.42 29.207 112.344 29.18C112.274 29.1443 112.201 29.1125 112.127 29.0849C112.058 29.048 111.988 29.0146 111.916 28.9847C111.847 28.9506 111.782 28.9136 111.711 28.8845C111.641 28.8555 111.582 28.8124 111.514 28.7844C111.445 28.7563 111.411 28.7222 111.351 28.6982C111.29 28.6742 111.235 28.6351 111.178 28.598C111.12 28.561 111.066 28.5329 111.011 28.4979C110.956 28.4628 110.909 28.4338 110.85 28.3977C110.792 28.3616 110.748 28.3336 110.697 28.3025C110.645 28.2715 110.594 28.2374 110.549 28.2074C110.504 28.1773 110.458 28.1423 110.409 28.1132C110.36 28.0842 110.322 28.0491 110.276 28.021C110.23 27.993 110.194 27.9579 110.149 27.9299C110.104 27.9018 110.072 27.8688 110.029 27.8417C109.986 27.8147 109.956 27.7816 109.916 27.7556C109.876 27.7295 109.851 27.6985 109.814 27.6744L109.805 27.6674C109.782 27.6444 109.756 27.6264 109.732 27.6053C109.709 27.5843 109.688 27.5683 109.668 27.5482C109.647 27.5282 109.628 27.5132 109.608 27.4951L109.557 27.4481C109.543 27.433 109.528 27.42 109.513 27.406L109.476 27.3699C109.466 27.3599 109.457 27.3489 109.446 27.3399L109.423 27.3158L109.408 27.2988L109.399 27.2898C109.175 27.0609 108.906 26.8782 108.608 26.7522C108.31 26.6263 107.99 26.5597 107.666 26.5564C107.341 26.5531 107.02 26.6131 106.719 26.7329C106.419 26.8527 106.146 27.0299 105.917 27.2541C105.687 27.4784 105.506 27.7451 105.383 28.0388C105.26 28.3325 105.198 28.6472 105.201 28.9645C105.204 29.2818 105.272 29.5953 105.4 29.8867C105.529 30.1781 105.715 30.4415 105.949 30.6616L105.956 30.6696L105.972 30.6846L105.997 30.7097C106.008 30.7207 106.019 30.7317 106.032 30.7417C106.044 30.7517 106.06 30.7698 106.075 30.7828C106.089 30.7958 106.109 30.8148 106.126 30.8309C106.143 30.8469 106.167 30.8679 106.187 30.887C106.208 30.906 106.233 30.928 106.257 30.9491C106.281 30.9701 106.309 30.9941 106.335 31.0172C106.36 31.0402 106.394 31.0673 106.423 31.0923C106.452 31.1174 106.487 31.1454 106.519 31.1734C106.631 31.2852 106.754 31.3858 106.886 31.474C106.923 31.501 106.955 31.5331 106.988 31.5581C107.021 31.5831 107.065 31.6212 107.106 31.6483C107.147 31.6753 107.188 31.7134 107.233 31.7424C107.278 31.7715 107.321 31.8095 107.369 31.8426C107.417 31.8757 107.463 31.9127 107.514 31.9428C107.566 31.9728 107.617 32.0159 107.668 32.0479C107.719 32.08 107.77 32.1231 107.832 32.1571C107.893 32.1912 107.945 32.2323 108.004 32.2683C108.062 32.3044 108.124 32.3455 108.186 32.3815C108.248 32.4176 108.312 32.4597 108.377 32.4977C108.443 32.5358 108.51 32.5769 108.582 32.6149C108.655 32.653 108.722 32.6951 108.787 32.7341C108.922 32.825 109.066 32.9026 109.216 32.9655C109.289 33.0072 109.363 33.045 109.44 33.0787C109.516 33.121 109.593 33.1591 109.673 33.1929C109.751 33.2358 109.832 33.2739 109.915 33.3071C109.997 33.3495 110.08 33.3873 110.166 33.4203C110.251 33.4628 110.338 33.5002 110.427 33.5325C110.515 33.5752 110.606 33.6126 110.699 33.6447C110.792 33.689 110.889 33.7269 110.988 33.7579C111.082 33.8001 111.179 33.8363 111.278 33.8661C111.479 33.9399 111.681 34.0097 111.885 34.0754C112.041 34.1422 112.204 34.1923 112.371 34.2247C112.476 34.2618 112.583 34.292 112.692 34.3148C112.801 34.3508 112.911 34.3793 113.024 34.4C113.136 34.4351 113.25 34.4626 113.366 34.4821C113.48 34.5161 113.598 34.5418 113.716 34.5592C113.835 34.5915 113.955 34.6156 114.077 34.6314C114.455 34.7028 114.835 34.7642 115.216 34.8157C115.348 34.8423 115.481 34.8587 115.615 34.8648C115.781 34.8995 115.95 34.9169 116.12 34.9169H116.146C116.26 34.9364 116.375 34.9478 116.491 34.9509C116.513 34.9509 116.535 34.9449 116.557 34.9439C116.659 34.9607 116.761 34.971 116.864 34.975C116.902 34.975 116.937 34.9659 116.975 34.9639C117.066 34.9781 117.158 34.9871 117.25 34.991C117.304 34.991 117.353 34.979 117.405 34.976C117.484 34.988 117.564 34.9961 117.645 35C117.713 35 117.778 34.985 117.849 34.98C117.921 34.975 117.98 35 118.054 35C118.134 34.9961 118.214 34.988 118.294 34.976C118.346 34.976 118.396 34.991 118.448 34.991C118.541 34.987 118.633 34.978 118.725 34.9639C118.762 34.9639 118.796 34.975 118.834 34.975C118.937 34.9711 119.04 34.9607 119.142 34.9439C119.164 34.9439 119.186 34.9509 119.209 34.9509C119.324 34.9477 119.439 34.9363 119.553 34.9169H119.579C119.748 34.917 119.918 34.8995 120.084 34.8648C120.218 34.8587 120.351 34.8423 120.483 34.8157C120.74 34.7808 120.996 34.7417 121.252 34.6985C121.377 34.6854 121.501 34.663 121.622 34.6314C121.744 34.6155 121.865 34.5914 121.983 34.5592C122.102 34.5418 122.219 34.5161 122.334 34.4821C122.449 34.4624 122.563 34.435 122.675 34.4C122.787 34.3794 122.898 34.3509 123.007 34.3148C123.116 34.2921 123.224 34.262 123.329 34.2247C123.496 34.1921 123.659 34.1421 123.815 34.0754C123.919 34.0488 124.022 34.0153 124.122 33.9752C124.224 33.9462 124.323 33.9107 124.421 33.8691C124.519 33.8381 124.615 33.801 124.708 33.7579C124.804 33.7277 124.898 33.6913 124.989 33.6487C125.081 33.6165 125.171 33.579 125.259 33.5365C125.348 33.5043 125.436 33.4668 125.52 33.4243C125.606 33.3913 125.691 33.3535 125.772 33.3111C125.855 33.2777 125.936 33.2396 126.014 33.1969C126.094 33.1631 126.172 33.125 126.247 33.0827C126.324 33.049 126.398 33.0112 126.47 32.9695C126.621 32.9066 126.765 32.829 126.899 32.7381C126.97 32.6991 127.043 32.664 127.104 32.6189C127.166 32.5738 127.24 32.5458 127.309 32.5017C127.378 32.4576 127.44 32.4286 127.501 32.3855C127.561 32.3424 127.624 32.3134 127.683 32.2723C127.741 32.2313 127.799 32.2012 127.855 32.1611C127.91 32.1211 127.965 32.091 128.019 32.052C128.072 32.0129 128.121 31.9838 128.173 31.9468C128.225 31.9097 128.276 31.8807 128.319 31.8466C128.362 31.8125 128.409 31.7815 128.454 31.7464C128.499 31.7114 128.539 31.6833 128.581 31.6523C128.623 31.6212 128.659 31.5922 128.698 31.5621C128.738 31.5321 128.769 31.505 128.807 31.478C128.939 31.3896 129.062 31.2889 129.174 31.1775C129.204 31.1494 129.239 31.1264 129.27 31.0963C129.3 31.0663 129.329 31.0492 129.357 31.0212C129.384 30.9931 129.41 30.9771 129.436 30.9531C129.461 30.929 129.483 30.913 129.505 30.891C129.528 30.8689 129.546 30.8549 129.566 30.8349L129.618 30.7868L129.661 30.7457L129.695 30.7137L129.72 30.6886L129.736 30.6736L129.744 30.6666C129.971 30.4452 130.152 30.182 130.275 29.8921C130.398 29.6023 130.461 29.2915 130.461 28.9777" fill="#FFE800"></path></svg> 